<?xml version="1.0" standalone="no"?>
<!DOCTYPE svg PUBLIC "-//W3C//DTD SVG 20010904//EN"
 "http://www.w3.org/TR/2001/REC-SVG-20010904/DTD/svg10.dtd">
<svg version="1.0" xmlns="http://www.w3.org/2000/svg"
 width="670.000000pt" height="411.000000pt" viewBox="0 0 670.000000 411.000000"
 preserveAspectRatio="xMidYMid meet">

<g transform="translate(0.000000,411.000000) scale(0.100000,-0.100000)"
fill="#FFFFFF" stroke="none">
<path d="M1732 3082 c-133 -328 -244 -605 -248 -614 -5 -15 0 -18 33 -18 l39
0 78 195 78 195 263 0 262 0 77 -195 78 -195 44 0 44 0 -21 53 c-95 241 -472
1164 -478 1169 -4 5 -116 -261 -249 -590z m358 133 c57 -143 105 -268 107
-277 5 -17 -10 -18 -221 -18 -124 0 -226 3 -226 8 0 22 224 562 230 555 5 -4
54 -125 110 -268z"/>
<path d="M190 3050 l0 -600 40 0 40 0 2 495 3 496 448 -506 c247 -278 451
-505 453 -505 2 0 4 270 4 600 l0 600 -39 0 -40 0 6 -501 c4 -336 3 -500 -4
-498 -5 2 -211 232 -457 512 -246 279 -449 507 -451 507 -3 0 -5 -270 -5 -600z"/>
<path d="M2790 3050 l0 -600 40 0 40 0 2 495 3 496 448 -506 c247 -278 451
-505 453 -505 2 0 4 270 4 600 l0 600 -39 0 -40 0 6 -501 c4 -336 3 -500 -4
-498 -5 2 -211 232 -457 512 -246 279 -449 507 -451 507 -3 0 -5 -270 -5 -600z"/>
<path d="M5880 3640 c-233 -28 -443 -213 -505 -446 -20 -72 -22 -223 -5 -295
52 -220 225 -393 446 -445 94 -22 245 -15 334 16 177 60 320 203 380 380 31
88 37 232 16 323 -71 304 -356 503 -666 467z m244 -99 c198 -69 338 -252 353
-463 11 -153 -35 -284 -143 -398 -166 -176 -424 -216 -634 -97 -115 64 -221
204 -249 327 -16 69 -13 209 5 271 44 149 142 268 274 332 41 21 95 42 120 47
68 14 206 4 274 -19z"/>
<path d="M4180 3040 l0 -590 203 0 c312 0 407 30 550 171 118 117 167 238 167
413 0 289 -184 524 -455 581 -48 10 -133 15 -267 15 l-198 0 0 -590z m465 495
c182 -48 317 -185 360 -367 68 -288 -85 -552 -360 -623 -41 -10 -108 -15 -222
-15 l-163 0 0 510 0 510 163 0 c114 0 180 -5 222 -15z"/>
<path d="M5767 1238 c-108 -249 -239 -551 -291 -671 l-95 -218 126 3 125 3 51
123 51 122 216 0 217 0 48 -125 48 -125 144 0 c115 0 144 3 141 13 -7 29 -573
1327 -579 1327 -3 0 -94 -204 -202 -452z m257 -276 c31 -78 56 -144 56 -147 0
-3 -56 -5 -125 -5 -78 0 -125 4 -125 10 0 6 23 65 51 133 28 67 55 133 61 146
5 14 12 20 17 15 4 -5 33 -73 65 -152z"/>
<path d="M1750 1635 c-109 -24 -224 -89 -310 -175 -84 -85 -129 -154 -168
-262 -24 -65 -26 -87 -26 -208 0 -114 3 -145 23 -200 69 -198 218 -349 413
-417 99 -35 257 -43 361 -18 121 29 220 86 317 184 141 142 196 282 188 481
-8 173 -65 304 -188 430 -74 75 -174 138 -270 170 -85 28 -249 36 -340 15z
m228 -235 c118 -28 221 -112 274 -225 36 -78 49 -202 29 -282 -31 -122 -118
-230 -225 -280 -53 -25 -73 -28 -156 -28 -86 0 -101 3 -162 32 -40 19 -89 53
-118 83 -192 191 -146 534 88 658 93 49 178 63 270 42z"/>
<path d="M3233 1635 c-298 -65 -487 -340 -471 -685 9 -174 60 -297 172 -417
113 -121 252 -181 442 -190 133 -7 227 11 330 62 104 51 100 41 58 131 -20 43
-42 93 -50 111 l-14 32 -57 -35 c-80 -48 -123 -59 -238 -59 -88 0 -107 3 -160
28 -251 116 -303 497 -95 691 78 73 147 101 251 101 82 0 89 -2 175 -45 49
-25 92 -46 95 -48 7 -3 99 209 99 226 0 16 -154 80 -232 96 -92 19 -220 19
-305 1z"/>
<path d="M170 996 l0 -646 125 0 125 0 0 205 0 205 85 0 85 0 137 -205 136
-205 144 0 c78 0 143 2 143 5 0 2 -65 106 -145 231 l-146 226 60 55 c71 64
114 144 132 247 42 244 -77 435 -312 503 -40 11 -122 16 -311 20 l-258 5 0
-646z m523 380 c108 -45 141 -211 60 -306 -44 -53 -76 -63 -210 -68 l-123 -4
0 196 0 196 120 0 c79 0 132 -5 153 -14z"/>
<path d="M4090 995 l0 -645 125 0 125 0 0 260 0 260 290 0 290 0 0 -260 0
-260 125 0 125 0 0 645 0 645 -125 0 -125 0 0 -260 0 -260 -290 0 -290 0 0
260 0 260 -125 0 -125 0 0 -645z"/>
</g>
</svg>
